<svg width="21" height="21" fill="none" xmlns="http://www.w3.org/2000/svg"><path fill-rule="evenodd" clip-rule="evenodd" d="M3.973 10.467c0-.153.063-.3.177-.409a.617.617 0 01.426-.169H15.43c.16 0 .313.061.426.17a.565.565 0 01.177.408c0 .153-.064.3-.177.408a.617.617 0 01-.426.17H4.576a.617.617 0 01-.426-.17.565.565 0 01-.177-.408z" fill="#1C2232"/><path fill-rule="evenodd" clip-rule="evenodd" d="M12.835 14.34a.577.577 0 01-.177-.409.556.556 0 01.177-.409l3.192-3.055-3.192-3.056a.566.566 0 01-.177-.408c0-.154.064-.3.177-.41a.618.618 0 01.427-.169c.16 0 .314.061.427.17l3.618 3.464a.577.577 0 01.177.409.557.557 0 01-.177.409L13.69 14.34a.607.607 0 01-.427.17.627.627 0 01-.427-.17z" fill="#1C2232"/></svg>