<svg width="28" height="34" fill="none" xmlns="http://www.w3.org/2000/svg"><g opacity=".5" fill-rule="evenodd" clip-rule="evenodd" fill="#DAE3E8"><path d="M16.337 24.127a1.11 1.11 0 01-.184-.345 1.3 1.3 0 010-.814 1.11 1.11 0 01.184-.345L20.82 17l-4.483-5.623c-.159-.2-.248-.47-.248-.752 0-.282.09-.553.248-.752a.772.772 0 01.6-.312c.225 0 .44.112.6.312l5.08 6.375c.08.098.142.216.185.345a1.301 1.301 0 010 .814c-.043.13-.106.247-.184.345l-5.082 6.375a.861.861 0 01-.275.231.7.7 0 01-.324.081.7.7 0 01-.325-.08.862.862 0 01-.275-.232z"/><path d="M4.234 17c0-.282.09-.552.248-.751a.77.77 0 01.6-.311h15.242a.77.77 0 01.6.31c.158.2.247.47.247.752 0 .282-.09.552-.248.751a.77.77 0 01-.599.311H5.081a.77.77 0 01-.599-.31c-.159-.2-.248-.47-.248-.752z"/></g></svg>