<svg width="33" height="34" fill="none" xmlns="http://www.w3.org/2000/svg"><path d="M16.5 0C7.389 0 0 7.613 0 17s7.389 17 16.5 17S33 26.387 33 17 25.611 0 16.5 0zm-4.795 25.7H7.687V13.242h4.018V25.7zM9.696 11.541H9.67c-1.348 0-2.22-.956-2.22-2.151 0-1.223.898-2.153 2.273-2.153 1.374 0 2.22.93 2.247 2.153 0 1.195-.873 2.151-2.274 2.151zm16.5 14.157h-4.019v-6.664c0-1.674-.582-2.816-2.036-2.816-1.11 0-1.77.77-2.061 1.514-.107.266-.133.638-.133 1.01V25.7H13.93s.053-11.287 0-12.456h4.018v1.764c.534-.849 1.49-2.056 3.622-2.056 2.644 0 4.626 1.78 4.626 5.606V25.7z" fill="#D7E2F2"/></svg>