<svg width="143" height="181" fill="none" xmlns="http://www.w3.org/2000/svg"><path d="M58.754 95.984l-4.998-7.99h-6.652l8.517 13.762v8.411h5.807v-8.411l8.517-13.761h-6.44l-4.752 7.989zm14.313 6.335c0-2.358.844-3.977 2.85-3.977 1.971 0 2.851 1.619 2.851 3.977 0 2.358-.88 3.977-2.85 3.977-2.007 0-2.851-1.619-2.851-3.977zm11.438 0c0-4.857-3.484-8.271-8.588-8.271-5.138 0-8.587 3.414-8.587 8.271 0 4.892 3.449 8.27 8.587 8.27 5.104 0 8.588-3.378 8.588-8.27zm12.61-.141c0 2.393-.703 3.942-2.498 3.942-1.725 0-2.323-1.162-2.323-3.273V94.47h-5.701v9.89c0 3.273 1.302 6.229 5.596 6.229 2.358 0 4.082-1.02 4.927-2.78v2.358h5.701V94.47h-5.701v7.708zm14.499.281c0-2.358.774-3.906 2.71-3.906 1.724 0 2.323 1.126 2.323 3.273v8.341h5.701v-9.854c0-3.273-1.372-6.265-5.666-6.265-2.358 0-4.223 1.056-5.068 2.78V94.47h-5.702v15.697h5.702v-7.708zm28.465-3.026a4.24 4.24 0 00-.492-2.006 10.791 10.791 0 012.287-.247v-4.294c-1.724 0-3.449 1.127-4.399 2.429-1.337-.81-3.132-1.267-5.033-1.267-4.399 0-7.567 2.041-7.567 5.385 0 1.724.845 3.062 2.253 3.977-1.69.633-2.675 1.795-2.675 3.308a3.22 3.22 0 002.252 3.062c-1.759.141-2.991 1.232-2.991 2.604 0 2.957 3.871 3.836 8.341 3.836 5.103 0 9.854-1.794 9.854-5.701 0-2.64-1.794-4.505-5.349-4.505h-6.511c-.95 0-1.337-.422-1.337-.95 0-.317.105-.563.316-.739 1.021.316 2.147.457 3.414.457 4.435 0 7.637-2.041 7.637-5.35zm-11.684 12.388c0-.598.422-.95 1.056-.95h5.772c.95 0 1.443.246 1.443.915 0 .95-1.936 1.478-4.576 1.478-2.111 0-3.695-.317-3.695-1.443zm5.772-12.388c0 1.407-.704 2.287-1.654 2.287-.951 0-1.655-.88-1.655-2.287 0-1.373.704-2.253 1.655-2.253.95 0 1.654.88 1.654 2.253zM21.136 73.214c0 3.269 2.564 5.042 6.154 5.042 3.077 0 5.491-1.431 5.491-4.21 0-2.2-1.26-3.568-4.017-4.059l-2.521-.449c-.983-.192-1.581-.47-1.581-1.24 0-.918.769-1.474 2.136-1.474 1.56 0 2.65.77 2.735 2.351l2.992-.085c-.064-2.992-2.051-4.808-5.705-4.808-3.27 0-5.342 1.645-5.342 4.295 0 2.286 1.517 3.483 3.654 3.889l2.521.448c1.175.236 1.966.45 1.966 1.347s-.898 1.453-2.33 1.453c-1.666 0-3.055-.748-3.183-2.607l-2.97.107zm20.122 1.431c-.342.876-1.005 1.282-2.073 1.282-1.197 0-2.137-.726-2.222-1.987H43.8V73c0-2.586-1.645-4.744-4.786-4.744-2.906 0-5.086 2.158-5.086 5.15 0 3.013 2.137 4.85 5.15 4.85 2.479 0 4.167-1.218 4.658-3.376l-2.478-.235zm-4.253-2.35c.171-1.005.748-1.795 1.988-1.795 1.175 0 1.773.855 1.837 1.795h-3.825zm15.339-3.654c-.257-.214-.748-.385-1.325-.385-1.282 0-2.265.919-2.628 1.987v-1.73h-3.078V78h3.078v-4.487c0-1.646.854-2.372 2.136-2.372.663 0 1.133.107 1.624.384l.193-2.884zm9.7 2.863a2.63 2.63 0 00-.341-1.303 5.948 5.948 0 011.474-.193v-2.371c-1.026 0-2.03.64-2.585 1.41-.79-.513-1.88-.79-3.035-.79-2.607 0-4.465 1.239-4.465 3.247 0 1.026.491 1.86 1.346 2.415-.983.363-1.582 1.068-1.582 1.944 0 .812.492 1.539 1.347 1.817-1.09.106-1.838.79-1.838 1.666 0 1.774 2.286 2.372 4.957 2.372 3.035 0 5.855-1.047 5.855-3.419 0-1.56-1.09-2.692-3.205-2.692h-3.889c-.62 0-.876-.278-.876-.641a.68.68 0 01.256-.534 7.09 7.09 0 002.094.299c2.607 0 4.488-1.24 4.488-3.227zm-7.05 7.479c0-.492.384-.727.875-.727h3.355c.705 0 1.09.171 1.09.684 0 .705-1.26 1.069-2.97 1.069-1.39 0-2.35-.278-2.35-1.026zm3.867-7.479c0 .962-.534 1.517-1.282 1.517-.727 0-1.26-.555-1.26-1.517 0-.94.533-1.474 1.26-1.474.748 0 1.282.534 1.282 1.474zm11.945 3.141c-.342.876-1.005 1.282-2.073 1.282-1.197 0-2.137-.726-2.222-1.987h6.837V73c0-2.586-1.645-4.744-4.786-4.744-2.906 0-5.086 2.158-5.086 5.15 0 3.013 2.137 4.85 5.15 4.85 2.479 0 4.167-1.218 4.658-3.376l-2.478-.235zm-4.253-2.35c.171-1.005.748-1.795 1.988-1.795 1.175 0 1.773.855 1.837 1.795h-3.825zm12.65 9.167l5.45-12.95h-3.035l-2.329 5.92h-.085l-2.287-5.92H73.67l3.89 9.573-1.39 3.377h3.035zm34.67-1.366c6.253 0 11.34-5.087 11.34-11.34s-5.087-11.34-11.34-11.34-11.34 5.087-11.34 11.34 5.087 11.34 11.34 11.34zm0-19.552c4.528 0 8.212 3.684 8.212 8.212s-3.684 8.212-8.212 8.212a8.142 8.142 0 01-4.927-1.642.39.39 0 11.469-.626 7.367 7.367 0 004.458 1.486c4.097 0 7.43-3.333 7.43-7.43 0-4.097-3.333-7.43-7.43-7.43-4.097 0-7.43 3.333-7.43 7.43a.39.39 0 11-.782 0c0-4.528 3.684-8.212 8.212-8.212zm.086 9.587c1.054 0 1.912-.927 1.912-2.065 0-1.817-1.374-3.295-3.063-3.295-1.69 0-3.064 1.478-3.064 3.295 0 2.493 1.891 4.522 4.215 4.522s4.215-2.029 4.215-4.522a.391.391 0 11.782 0c0 2.925-2.241 5.304-4.997 5.304s-4.997-2.38-4.997-5.304c0-2.248 1.725-4.077 3.846-4.077 2.12 0 3.845 1.829 3.845 4.077 0 1.57-1.209 2.847-2.694 2.847-1.485 0-2.694-1.277-2.694-2.847 0-.893.692-1.62 1.543-1.62.85 0 1.542.727 1.542 1.62a.391.391 0 11-.782 0c0-.462-.341-.838-.76-.838-.42 0-.761.376-.761.838 0 1.138.858 2.065 1.912 2.065zm-9.11-14.681a16.078 16.078 0 00-6.45 8.817.39.39 0 10.751.218 15.294 15.294 0 016.136-8.387.39.39 0 10-.437-.649zm-7.087 13.306c0 2.05.382 4.045 1.134 5.933a.39.39 0 10.726-.29 15.174 15.174 0 01-1.078-5.643.391.391 0 10-.782 0zM27.937 28.677C15.66 36.947 6.63 49.292 2.511 63.437a1.541 1.541 0 102.96.862C9.388 50.844 17.978 39.102 29.66 31.233a1.542 1.542 0 00-1.723-2.556zM0 81.133c0 8.078 1.503 15.946 4.468 23.385a1.543 1.543 0 102.864-1.141c-2.82-7.075-4.249-14.559-4.249-22.244a1.542 1.542 0 00-3.083 0z" fill="#DAE3E8"/></svg>